<?xml version="1.0" encoding="utf-8"?>
<!-- Generator: Adobe Illustrator 25.2.0, SVG Export Plug-In . SVG Version: 6.00 Build 0)  -->
<svg version="1.1" id="Layer_1" xmlns="http://www.w3.org/2000/svg" xmlns:xlink="http://www.w3.org/1999/xlink" x="0px" y="0px"
	 viewBox="0 0 16 16" style="enable-background:new 0 0 16 16;" xml:space="preserve">
<style type="text/css">
	.st0{fill-rule:evenodd;clip-rule:evenodd;fill:#FFFFFF;}
</style>
<path class="st0" d="M1.6,1.3c0.2-0.2,0.5-0.2,0.7,0c0,0,0,0,0,0L8,7l5.6-5.6c0.2-0.2,0.5-0.2,0.7,0s0.2,0.5,0,0.7l-6,6
	C8.2,8.2,7.8,8.2,7.6,8c0,0,0,0,0,0l-6-6C1.5,1.8,1.5,1.5,1.6,1.3C1.6,1.3,1.6,1.3,1.6,1.3z"/>
<path class="st0" d="M1.6,6.4c0.2-0.2,0.5-0.2,0.7,0c0,0,0,0,0,0L8,12l5.6-5.6c0.2-0.2,0.5-0.2,0.7,0s0.2,0.5,0,0.7l-6,6
	c-0.2,0.2-0.5,0.2-0.7,0c0,0,0,0,0,0l-6-6C1.5,6.9,1.5,6.6,1.6,6.4C1.6,6.4,1.6,6.4,1.6,6.4z"/>
</svg>
